<svg width="50" height="50" viewBox="0 0 45 45" fill="none" xmlns="http://www.w3.org/2000/svg">
<rect x="1" y="1" width="43" height="43" rx="7" fill="#F0EEE2" stroke="black" stroke-width="2"/>
<path d="M33.9464 13.8751C33.0864 15.2175 31.6122 15.4616 30.5064 14.3633C29.585 13.448 29.0322 13.9972 28.7864 16.3768C28.3564 20.0379 27.0664 21.1972 23.4422 21.1972C11.4022 21.3192 10.1122 21.5023 8.45359 23.1497C7.16359 24.4921 6.85645 25.3463 6.91788 27.665C6.91788 29.2514 6.67216 31.204 6.36502 32.0582C5.68931 33.8277 6.61074 35.2311 8.39216 35.2311C9.25216 35.2311 9.49788 34.926 9.25216 34.2548C8.94502 33.5226 9.19073 33.4006 10.1122 33.7057C11.2179 34.0718 11.3407 33.8887 11.0336 32.6684C10.7264 31.5701 11.0336 31.0209 12.5079 30.1667C14.2279 29.1904 14.4122 29.1904 16.9922 30.2887C18.4664 30.8989 21.3536 31.6311 23.4422 31.8751C26.575 32.2412 27.2507 32.5463 27.865 33.7667C28.295 34.7429 29.0322 35.2311 30.015 35.2311C31.6122 35.2311 32.9022 33.9497 31.735 33.5226C30.445 33.0955 30.9364 31.8751 32.8407 30.4718C34.3764 29.3124 34.6836 28.7023 34.6836 26.4446C34.6836 23.1497 35.175 21.8073 36.2807 21.8073C36.8336 21.8073 37.1407 21.1362 37.1407 19.9768C37.1407 18.9395 36.895 18.1463 36.5264 18.1463C36.2193 18.1463 35.9122 16.926 35.9122 15.4006C35.9122 12.4717 35.175 11.9226 33.9464 13.8751Z" fill="black"/>
</svg>
