<svg width="70" height="70" viewBox="0 0 80 80" fill="none" xmlns="http://www.w3.org/2000/svg">
<circle cx="40" cy="40" r="40" transform="rotate(-180 40 40)" fill="#C4884B"/>
<path d="M37.7146 39.4996C37.7146 46.4789 48.4012 56.3744 55.1468 56.3744C58.185 56.3744 60 54.0181 60 50.0692C60 45.7766 57.8167 42.9422 57.8167 39.4996C57.8167 36.027 60 33.1847 60 28.93C60 24.9811 58.185 22.6247 55.1468 22.6247C48.4012 22.6247 37.7146 32.5202 37.7146 39.4996ZM36.6169 52.444C33.6005 53.358 31.6471 56.174 32.253 58.7333C32.8589 61.2927 35.7951 62.626 38.8115 61.7119C41.8279 60.7979 43.7813 57.9819 43.1754 55.4225C42.5695 52.8632 39.6333 51.5299 36.6169 52.444ZM34.808 44.9979C34.0994 42.2786 30.4606 40.9181 26.6808 41.9587C22.901 42.9993 20.4121 46.0473 21.1207 48.7667C21.8294 51.486 25.4681 52.8465 29.2479 51.8059C33.0277 50.7653 35.5174 47.7164 34.808 44.9979ZM32.2539 20.2667C31.648 22.826 33.6014 25.6411 36.6178 26.556C39.6341 27.4701 42.5704 26.1368 43.1763 23.5775C43.7822 21.0181 41.8287 18.203 38.8124 17.2881C35.796 16.374 32.8597 17.7073 32.2539 20.2667ZM34.808 34.0012C35.5166 31.2819 33.0277 28.2339 29.2479 27.1932C25.4681 26.1526 21.8302 27.5132 21.1207 30.2325C20.4113 32.9518 22.901 35.9998 26.6808 37.0404C30.4606 38.081 34.0994 36.7205 34.808 34.0012Z" fill="black"/>
</svg>
