<svg width="70" height="70" viewBox="0 0 80 80" fill="none" xmlns="http://www.w3.org/2000/svg">
<circle cx="40" cy="40" r="40" fill="#C4884B"/>
<path d="M42.2854 40.5004C42.2854 33.5211 31.5988 23.6256 24.8532 23.6256C21.815 23.6256 20 25.9819 20 29.9308C20 34.2234 22.1833 37.0578 22.1833 40.5004C22.1833 43.973 20 46.8153 20 51.0701C20 55.0189 21.815 57.3753 24.8532 57.3753C31.5988 57.3753 42.2854 47.4798 42.2854 40.5004ZM43.3831 27.556C46.3995 26.642 48.3529 23.826 47.747 21.2667C47.1411 18.7073 44.2049 17.374 41.1885 18.2881C38.1721 19.2021 36.2187 22.0181 36.8246 24.5775C37.4305 27.1368 40.3667 28.4701 43.3831 27.556ZM45.192 35.0021C45.9006 37.7214 49.5394 39.0819 53.3192 38.0413C57.099 37.0007 59.5879 33.9527 58.8793 31.2333C58.1706 28.514 54.5319 27.1535 50.7521 28.1941C46.9723 29.2347 44.4826 32.2836 45.192 35.0021ZM47.7461 59.7333C48.352 57.174 46.3986 54.3589 43.3822 53.444C40.3659 52.5299 37.4296 53.8632 36.8237 56.4225C36.2178 58.9819 38.1713 61.797 41.1876 62.7119C44.204 63.626 47.1403 62.2927 47.7461 59.7333ZM45.192 45.9988C44.4834 48.7181 46.9723 51.7661 50.7521 52.8068C54.5319 53.8474 58.1698 52.4868 58.8793 49.7675C59.5887 47.0482 57.099 44.0002 53.3192 42.9596C49.5394 41.919 45.9006 43.2795 45.192 45.9988Z" fill="black"/>
</svg>
